<?xml version="1.0" encoding="UTF-8"?>
<svg xmlns="http://www.w3.org/2000/svg" xmlns:xlink="http://www.w3.org/1999/xlink" width="40px" height="10px" viewBox="0 0 40 10" version="1.1">
<g id="surface1">
<path style=" stroke:none;fill-rule:nonzero;fill:rgb(0%,61.176473%,86.666667%);fill-opacity:1;" d="M 1.539062 8.503906 C 1.621094 8.503906 1.6875 8.4375 1.6875 8.355469 C 1.6875 8.273438 1.621094 8.207031 1.539062 8.207031 C 1.457031 8.207031 1.390625 8.273438 1.390625 8.355469 C 1.390625 8.4375 1.457031 8.503906 1.539062 8.503906 "/>
<path style=" stroke:none;fill-rule:nonzero;fill:rgb(41.176471%,14.117648%,43.529412%);fill-opacity:1;" d="M 13.042969 9.679688 C 13.125 9.679688 13.191406 9.609375 13.191406 9.527344 C 13.191406 9.445312 13.125 9.378906 13.042969 9.378906 C 12.960938 9.378906 12.894531 9.445312 12.894531 9.527344 C 12.894531 9.609375 12.960938 9.679688 13.042969 9.679688 "/>
<path style=" stroke:none;fill-rule:nonzero;fill:rgb(81.568629%,0%,43.921569%);fill-opacity:1;" d="M 6.003906 8.773438 L 6.003906 8.769531 C 6.003906 8.605469 5.945312 8.464844 5.839844 8.367188 L 5.832031 8.363281 L 5.832031 8.359375 C 5.734375 8.273438 5.597656 8.230469 5.441406 8.230469 C 5.4375 8.230469 5.4375 8.230469 5.4375 8.230469 C 5.433594 8.230469 5.433594 8.230469 5.433594 8.230469 L 5.429688 8.230469 C 5.425781 8.230469 5.421875 8.230469 5.421875 8.230469 C 5.417969 8.230469 5.414062 8.230469 5.410156 8.230469 C 5.410156 8.230469 5.40625 8.230469 5.40625 8.230469 L 5.402344 8.230469 C 5.242188 8.230469 5.109375 8.277344 5.011719 8.359375 L 5.007812 8.359375 L 5 8.367188 C 4.894531 8.464844 4.835938 8.601562 4.835938 8.769531 L 4.835938 9.628906 C 4.835938 9.640625 4.839844 9.652344 4.847656 9.660156 C 4.859375 9.667969 4.871094 9.671875 4.882812 9.671875 L 5.035156 9.671875 C 5.046875 9.671875 5.058594 9.667969 5.066406 9.660156 C 5.078125 9.652344 5.082031 9.640625 5.082031 9.628906 L 5.082031 8.800781 C 5.082031 8.675781 5.113281 8.589844 5.167969 8.535156 C 5.222656 8.480469 5.308594 8.449219 5.421875 8.445312 C 5.535156 8.449219 5.617188 8.480469 5.671875 8.535156 C 5.726562 8.589844 5.757812 8.675781 5.761719 8.800781 L 5.757812 9.628906 C 5.757812 9.640625 5.765625 9.652344 5.773438 9.660156 C 5.78125 9.667969 5.792969 9.671875 5.804688 9.671875 L 5.957031 9.671875 C 5.972656 9.671875 5.984375 9.667969 5.992188 9.660156 C 6 9.652344 6.003906 9.640625 6.003906 9.628906 Z M 6.003906 8.773438 "/>
<path style=" stroke:none;fill-rule:nonzero;fill:rgb(81.568629%,0%,43.921569%);fill-opacity:1;" d="M 11.335938 8.773438 L 11.335938 8.769531 C 11.335938 8.605469 11.277344 8.464844 11.171875 8.367188 L 11.164062 8.363281 L 11.164062 8.359375 L 11.160156 8.359375 C 11.0625 8.273438 10.929688 8.230469 10.769531 8.230469 C 10.769531 8.230469 10.769531 8.230469 10.765625 8.230469 C 10.765625 8.230469 10.765625 8.230469 10.761719 8.230469 C 10.757812 8.230469 10.753906 8.230469 10.75 8.230469 C 10.75 8.230469 10.746094 8.230469 10.742188 8.230469 L 10.738281 8.230469 C 10.738281 8.230469 10.738281 8.230469 10.734375 8.230469 C 10.734375 8.230469 10.730469 8.230469 10.730469 8.230469 C 10.574219 8.230469 10.4375 8.277344 10.339844 8.359375 L 10.332031 8.367188 C 10.226562 8.464844 10.167969 8.601562 10.167969 8.769531 L 10.167969 9.628906 C 10.167969 9.640625 10.171875 9.652344 10.179688 9.660156 C 10.1875 9.667969 10.199219 9.671875 10.210938 9.671875 L 10.367188 9.671875 C 10.378906 9.671875 10.390625 9.667969 10.398438 9.660156 C 10.40625 9.652344 10.410156 9.640625 10.410156 9.628906 L 10.410156 8.800781 C 10.414062 8.675781 10.445312 8.589844 10.5 8.535156 C 10.554688 8.480469 10.636719 8.449219 10.75 8.445312 C 10.863281 8.449219 10.949219 8.480469 11.003906 8.535156 C 11.058594 8.589844 11.089844 8.675781 11.089844 8.800781 L 11.089844 9.628906 C 11.089844 9.640625 11.09375 9.652344 11.105469 9.660156 C 11.113281 9.667969 11.125 9.671875 11.136719 9.671875 L 11.289062 9.671875 C 11.300781 9.671875 11.3125 9.667969 11.320312 9.660156 C 11.332031 9.652344 11.335938 9.640625 11.335938 9.628906 Z M 11.335938 8.773438 "/>
<path style=" stroke:none;fill-rule:nonzero;fill:rgb(81.568629%,0%,43.921569%);fill-opacity:1;" d="M 8.523438 8.375 C 8.519531 8.375 8.519531 8.375 8.519531 8.371094 C 8.433594 8.292969 8.292969 8.242188 8.132812 8.242188 C 8.128906 8.242188 8.125 8.242188 8.121094 8.242188 C 7.988281 8.242188 7.859375 8.269531 7.746094 8.367188 L 7.746094 7.847656 C 7.746094 7.835938 7.742188 7.828125 7.730469 7.816406 C 7.722656 7.808594 7.710938 7.804688 7.699219 7.804688 L 7.546875 7.804688 C 7.535156 7.804688 7.523438 7.808594 7.515625 7.816406 C 7.507812 7.828125 7.503906 7.835938 7.503906 7.847656 L 7.503906 9.632812 C 7.503906 9.644531 7.507812 9.652344 7.515625 9.660156 C 7.523438 9.671875 7.535156 9.675781 7.546875 9.675781 L 7.699219 9.675781 C 7.710938 9.675781 7.722656 9.671875 7.730469 9.660156 C 7.742188 9.652344 7.746094 9.644531 7.746094 9.632812 L 7.746094 9.542969 C 7.847656 9.65625 7.988281 9.695312 8.121094 9.691406 L 8.132812 9.691406 C 8.292969 9.691406 8.433594 9.644531 8.519531 9.5625 C 8.679688 9.410156 8.71875 9.171875 8.71875 8.953125 C 8.71875 8.738281 8.679688 8.527344 8.523438 8.375 M 8.476562 8.953125 L 8.476562 8.960938 C 8.476562 9.097656 8.460938 9.230469 8.410156 9.328125 C 8.359375 9.417969 8.277344 9.480469 8.117188 9.484375 C 8.117188 9.484375 8.113281 9.484375 8.109375 9.484375 C 7.945312 9.480469 7.863281 9.421875 7.8125 9.328125 C 7.761719 9.230469 7.746094 9.097656 7.746094 8.957031 L 7.746094 8.949219 C 7.746094 8.8125 7.761719 8.703125 7.8125 8.609375 C 7.863281 8.515625 7.945312 8.453125 8.109375 8.453125 L 8.113281 8.453125 C 8.273438 8.453125 8.359375 8.515625 8.410156 8.609375 C 8.460938 8.703125 8.476562 8.8125 8.476562 8.949219 Z M 8.476562 8.953125 "/>
<path style=" stroke:none;fill-rule:nonzero;fill:rgb(81.568629%,0%,43.921569%);fill-opacity:1;" d="M 4.664062 8.707031 C 4.664062 8.5625 4.617188 8.4375 4.515625 8.351562 C 4.414062 8.269531 4.265625 8.230469 4.078125 8.230469 L 4.066406 8.230469 C 3.871094 8.230469 3.710938 8.273438 3.59375 8.398438 L 3.589844 8.398438 L 3.585938 8.40625 C 3.574219 8.417969 3.566406 8.429688 3.558594 8.4375 L 3.546875 8.453125 C 3.539062 8.460938 3.535156 8.472656 3.535156 8.484375 C 3.539062 8.496094 3.542969 8.507812 3.554688 8.515625 L 3.558594 8.523438 C 3.5625 8.527344 3.566406 8.527344 3.570312 8.53125 L 3.59375 8.554688 L 3.667969 8.617188 C 3.675781 8.625 3.6875 8.628906 3.699219 8.628906 C 3.710938 8.625 3.722656 8.621094 3.730469 8.613281 L 3.777344 8.558594 L 3.773438 8.558594 C 3.804688 8.527344 3.832031 8.503906 3.867188 8.488281 C 3.917969 8.46875 3.984375 8.457031 4.074219 8.457031 L 4.082031 8.457031 C 4.210938 8.457031 4.292969 8.484375 4.339844 8.523438 C 4.386719 8.566406 4.414062 8.628906 4.414062 8.722656 C 4.414062 8.722656 4.414062 8.726562 4.414062 8.726562 L 4.414062 8.816406 L 4.019531 8.816406 C 3.863281 8.816406 3.730469 8.851562 3.632812 8.925781 C 3.539062 9 3.488281 9.113281 3.488281 9.242188 L 3.488281 9.25 C 3.488281 9.355469 3.527344 9.464844 3.601562 9.539062 C 3.703125 9.636719 3.835938 9.671875 4.039062 9.671875 L 4.144531 9.671875 C 4.328125 9.671875 4.460938 9.628906 4.546875 9.535156 C 4.632812 9.441406 4.664062 9.308594 4.664062 9.144531 Z M 4.414062 9.152344 C 4.414062 9.265625 4.386719 9.328125 4.355469 9.359375 C 4.273438 9.433594 4.171875 9.445312 4.046875 9.445312 L 4.042969 9.445312 C 3.925781 9.445312 3.847656 9.425781 3.804688 9.394531 C 3.761719 9.363281 3.742188 9.320312 3.738281 9.246094 L 3.738281 9.242188 C 3.742188 9.167969 3.761719 9.121094 3.804688 9.089844 C 3.851562 9.054688 3.925781 9.035156 4.035156 9.035156 L 4.414062 9.035156 Z M 4.414062 9.152344 "/>
<path style=" stroke:none;fill-rule:nonzero;fill:rgb(81.568629%,0%,43.921569%);fill-opacity:1;" d="M 9.996094 8.710938 L 9.996094 8.707031 C 10 8.5625 9.949219 8.4375 9.847656 8.355469 C 9.746094 8.269531 9.597656 8.230469 9.410156 8.230469 L 9.402344 8.230469 C 9.203125 8.230469 9.042969 8.273438 8.925781 8.402344 L 8.917969 8.410156 C 8.90625 8.417969 8.898438 8.429688 8.890625 8.441406 L 8.878906 8.457031 C 8.871094 8.464844 8.867188 8.476562 8.867188 8.488281 C 8.871094 8.5 8.875 8.511719 8.886719 8.519531 L 8.890625 8.523438 C 8.894531 8.527344 8.898438 8.53125 8.902344 8.535156 L 8.925781 8.554688 L 9 8.617188 C 9.007812 8.625 9.019531 8.628906 9.03125 8.628906 C 9.042969 8.628906 9.054688 8.625 9.0625 8.613281 L 9.109375 8.558594 C 9.136719 8.53125 9.164062 8.507812 9.199219 8.492188 C 9.25 8.46875 9.316406 8.460938 9.40625 8.457031 L 9.414062 8.457031 C 9.542969 8.457031 9.625 8.484375 9.671875 8.527344 C 9.71875 8.566406 9.746094 8.628906 9.746094 8.722656 C 9.746094 8.726562 9.746094 8.726562 9.746094 8.730469 L 9.746094 8.820312 L 9.351562 8.820312 C 9.195312 8.820312 9.0625 8.855469 8.964844 8.929688 C 8.871094 9.003906 8.820312 9.113281 8.820312 9.246094 L 8.820312 9.25 C 8.820312 9.359375 8.859375 9.464844 8.933594 9.539062 C 9.035156 9.636719 9.167969 9.675781 9.371094 9.675781 L 9.476562 9.675781 C 9.660156 9.675781 9.792969 9.628906 9.878906 9.535156 C 9.964844 9.445312 10 9.3125 10 9.144531 L 10 8.710938 Z M 9.070312 9.246094 L 9.070312 9.242188 C 9.074219 9.167969 9.09375 9.125 9.136719 9.089844 C 9.183594 9.058594 9.257812 9.035156 9.367188 9.035156 L 9.746094 9.035156 L 9.746094 9.152344 C 9.746094 9.265625 9.71875 9.332031 9.6875 9.359375 C 9.605469 9.433594 9.503906 9.445312 9.378906 9.445312 L 9.375 9.445312 C 9.257812 9.445312 9.179688 9.425781 9.136719 9.394531 C 9.09375 9.363281 9.074219 9.320312 9.070312 9.246094 "/>
<path style=" stroke:none;fill-rule:nonzero;fill:rgb(81.568629%,0%,43.921569%);fill-opacity:1;" d="M 2.308594 8.234375 L 2.050781 8.234375 L 2.050781 7.847656 C 2.050781 7.824219 2.03125 7.804688 2.007812 7.804688 L 1.851562 7.804688 C 1.839844 7.804688 1.828125 7.808594 1.820312 7.816406 C 1.8125 7.824219 1.804688 7.835938 1.804688 7.847656 L 1.804688 9.308594 C 1.804688 9.40625 1.835938 9.496094 1.898438 9.5625 C 1.957031 9.628906 2.054688 9.671875 2.167969 9.671875 L 2.308594 9.671875 C 2.320312 9.671875 2.332031 9.664062 2.339844 9.65625 C 2.347656 9.648438 2.351562 9.636719 2.351562 9.625 L 2.351562 9.472656 C 2.351562 9.460938 2.347656 9.449219 2.339844 9.4375 C 2.332031 9.429688 2.320312 9.425781 2.308594 9.425781 L 2.1875 9.425781 C 2.164062 9.425781 2.144531 9.421875 2.128906 9.414062 C 2.117188 9.410156 2.109375 9.40625 2.105469 9.402344 C 2.097656 9.398438 2.09375 9.398438 2.085938 9.390625 C 2.0625 9.367188 2.050781 9.328125 2.050781 9.269531 L 2.050781 8.480469 L 2.308594 8.480469 C 2.320312 8.480469 2.332031 8.472656 2.339844 8.464844 C 2.347656 8.457031 2.351562 8.445312 2.351562 8.433594 L 2.351562 8.28125 C 2.351562 8.269531 2.347656 8.257812 2.339844 8.246094 C 2.332031 8.238281 2.320312 8.234375 2.308594 8.234375 "/>
<path style=" stroke:none;fill-rule:nonzero;fill:rgb(81.568629%,0%,43.921569%);fill-opacity:1;" d="M 3.421875 8.414062 L 3.410156 8.398438 C 3.410156 8.394531 3.40625 8.394531 3.40625 8.390625 L 3.375 8.359375 C 3.289062 8.269531 3.175781 8.230469 3.0625 8.230469 C 3.058594 8.230469 3.054688 8.230469 3.050781 8.230469 C 2.96875 8.230469 2.871094 8.265625 2.8125 8.335938 L 2.773438 8.382812 L 2.773438 8.277344 C 2.773438 8.265625 2.769531 8.253906 2.757812 8.246094 C 2.75 8.238281 2.738281 8.234375 2.726562 8.234375 L 2.578125 8.234375 C 2.5625 8.234375 2.550781 8.238281 2.542969 8.246094 C 2.535156 8.253906 2.53125 8.265625 2.53125 8.277344 L 2.53125 9.628906 C 2.53125 9.640625 2.535156 9.652344 2.542969 9.660156 C 2.550781 9.667969 2.5625 9.671875 2.578125 9.671875 L 2.601562 9.671875 C 2.601562 9.671875 2.605469 9.671875 2.605469 9.671875 L 2.699219 9.671875 C 2.699219 9.671875 2.703125 9.671875 2.703125 9.671875 L 2.726562 9.671875 C 2.738281 9.671875 2.75 9.667969 2.757812 9.660156 C 2.769531 9.652344 2.773438 9.640625 2.773438 9.628906 L 2.773438 8.804688 C 2.773438 8.800781 2.773438 8.800781 2.773438 8.800781 L 2.773438 8.734375 C 2.777344 8.660156 2.800781 8.59375 2.839844 8.542969 C 2.882812 8.492188 2.941406 8.457031 3.023438 8.457031 C 3.066406 8.457031 3.097656 8.464844 3.121094 8.472656 C 3.144531 8.484375 3.167969 8.503906 3.203125 8.535156 L 3.207031 8.542969 L 3.242188 8.578125 C 3.25 8.585938 3.261719 8.59375 3.273438 8.59375 C 3.285156 8.59375 3.296875 8.589844 3.304688 8.582031 L 3.417969 8.476562 C 3.425781 8.46875 3.433594 8.457031 3.433594 8.445312 C 3.433594 8.433594 3.429688 8.421875 3.421875 8.414062 "/>
<path style=" stroke:none;fill-rule:nonzero;fill:rgb(81.568629%,0%,43.921569%);fill-opacity:1;" d="M 7.21875 8.933594 C 7.21875 8.933594 7.21875 8.933594 7.214844 8.933594 C 7.128906 8.871094 7.015625 8.847656 6.898438 8.839844 L 6.671875 8.820312 C 6.578125 8.8125 6.519531 8.792969 6.488281 8.765625 C 6.457031 8.746094 6.441406 8.710938 6.441406 8.65625 L 6.441406 8.652344 C 6.441406 8.585938 6.464844 8.542969 6.507812 8.511719 C 6.558594 8.476562 6.632812 8.453125 6.738281 8.453125 C 6.875 8.453125 6.988281 8.484375 7.082031 8.546875 L 7.140625 8.585938 C 7.148438 8.59375 7.160156 8.59375 7.171875 8.59375 C 7.183594 8.589844 7.191406 8.582031 7.199219 8.574219 L 7.28125 8.449219 C 7.289062 8.441406 7.292969 8.429688 7.292969 8.417969 C 7.289062 8.410156 7.289062 8.40625 7.285156 8.398438 C 7.28125 8.394531 7.277344 8.386719 7.269531 8.382812 L 7.261719 8.378906 C 7.128906 8.28125 6.941406 8.226562 6.738281 8.226562 C 6.578125 8.226562 6.441406 8.265625 6.339844 8.339844 C 6.242188 8.414062 6.183594 8.523438 6.183594 8.652344 L 6.183594 8.65625 C 6.183594 8.765625 6.222656 8.867188 6.304688 8.933594 C 6.390625 9 6.507812 9.035156 6.652344 9.046875 L 6.882812 9.066406 C 6.96875 9.074219 7.023438 9.09375 7.054688 9.121094 C 7.082031 9.140625 7.097656 9.175781 7.097656 9.234375 L 7.097656 9.238281 C 7.097656 9.308594 7.070312 9.355469 7.015625 9.390625 C 6.960938 9.425781 6.867188 9.445312 6.738281 9.445312 C 6.738281 9.445312 6.738281 9.445312 6.734375 9.445312 C 6.566406 9.445312 6.445312 9.410156 6.351562 9.332031 L 6.304688 9.289062 C 6.292969 9.28125 6.28125 9.277344 6.269531 9.28125 C 6.257812 9.28125 6.246094 9.289062 6.238281 9.296875 L 6.144531 9.414062 C 6.136719 9.421875 6.132812 9.4375 6.132812 9.449219 C 6.132812 9.460938 6.136719 9.472656 6.148438 9.476562 L 6.191406 9.515625 C 6.191406 9.519531 6.195312 9.519531 6.195312 9.519531 L 6.203125 9.523438 C 6.34375 9.625 6.519531 9.675781 6.738281 9.675781 L 6.742188 9.675781 C 6.921875 9.675781 7.070312 9.636719 7.183594 9.5625 C 7.289062 9.484375 7.355469 9.371094 7.355469 9.238281 L 7.355469 9.230469 C 7.355469 9.09375 7.304688 8.992188 7.21875 8.933594 "/>
<path style=" stroke:none;fill-rule:nonzero;fill:rgb(81.568629%,0%,43.921569%);fill-opacity:1;" d="M 12.765625 9.613281 L 12.574219 9.347656 L 12.199219 8.796875 L 12.492188 8.484375 L 12.664062 8.304688 L 12.671875 8.292969 C 12.691406 8.269531 12.683594 8.25 12.675781 8.242188 C 12.664062 8.234375 12.652344 8.230469 12.640625 8.230469 L 12.445312 8.230469 C 12.433594 8.230469 12.417969 8.238281 12.410156 8.246094 L 11.75 8.949219 L 11.75 7.84375 C 11.75 7.832031 11.746094 7.820312 11.738281 7.8125 C 11.730469 7.804688 11.71875 7.800781 11.703125 7.800781 L 11.554688 7.800781 C 11.542969 7.800781 11.53125 7.804688 11.523438 7.8125 C 11.511719 7.820312 11.507812 7.832031 11.507812 7.84375 L 11.507812 9.628906 C 11.507812 9.640625 11.511719 9.652344 11.523438 9.660156 C 11.53125 9.667969 11.542969 9.671875 11.554688 9.671875 L 11.703125 9.671875 C 11.71875 9.671875 11.730469 9.667969 11.738281 9.660156 C 11.746094 9.652344 11.75 9.640625 11.75 9.628906 L 11.75 9.269531 L 12.035156 8.960938 L 12.230469 9.246094 L 12.226562 9.246094 L 12.496094 9.652344 C 12.503906 9.660156 12.515625 9.671875 12.535156 9.671875 L 12.734375 9.671875 C 12.746094 9.671875 12.757812 9.667969 12.765625 9.660156 C 12.773438 9.652344 12.78125 9.632812 12.765625 9.613281 "/>
<path style=" stroke:none;fill-rule:nonzero;fill:rgb(81.568629%,0%,43.921569%);fill-opacity:1;" d="M 11.078125 7.8125 L 11.105469 7.8125 L 11.144531 7.929688 L 11.183594 7.8125 L 11.210938 7.8125 L 11.210938 7.953125 L 11.191406 7.953125 L 11.191406 7.871094 C 11.191406 7.867188 11.191406 7.863281 11.191406 7.855469 C 11.191406 7.851562 11.191406 7.84375 11.191406 7.835938 L 11.152344 7.953125 L 11.132812 7.953125 L 11.09375 7.835938 L 11.09375 7.855469 C 11.09375 7.863281 11.09375 7.867188 11.09375 7.871094 L 11.09375 7.953125 L 11.078125 7.953125 Z M 11.078125 7.8125 "/>
<path style=" stroke:none;fill-rule:nonzero;fill:rgb(81.568629%,0%,43.921569%);fill-opacity:1;" d="M 11.289062 7.8125 L 11.351562 7.8125 C 11.363281 7.8125 11.371094 7.816406 11.378906 7.820312 C 11.390625 7.824219 11.394531 7.835938 11.394531 7.851562 C 11.394531 7.859375 11.394531 7.867188 11.390625 7.871094 C 11.386719 7.875 11.382812 7.882812 11.375 7.882812 C 11.382812 7.886719 11.386719 7.890625 11.390625 7.894531 C 11.390625 7.894531 11.394531 7.902344 11.394531 7.910156 L 11.394531 7.929688 C 11.394531 7.933594 11.394531 7.9375 11.394531 7.941406 C 11.398438 7.945312 11.398438 7.949219 11.402344 7.949219 L 11.402344 7.953125 L 11.378906 7.953125 C 11.378906 7.949219 11.378906 7.949219 11.378906 7.949219 C 11.375 7.945312 11.375 7.941406 11.375 7.9375 L 11.375 7.914062 C 11.375 7.902344 11.371094 7.898438 11.367188 7.894531 C 11.363281 7.894531 11.355469 7.894531 11.347656 7.894531 L 11.308594 7.894531 L 11.308594 7.953125 L 11.289062 7.953125 Z M 11.351562 7.878906 C 11.359375 7.878906 11.363281 7.875 11.371094 7.871094 C 11.375 7.867188 11.378906 7.863281 11.378906 7.851562 C 11.378906 7.84375 11.375 7.835938 11.367188 7.832031 C 11.363281 7.832031 11.359375 7.828125 11.351562 7.828125 L 11.308594 7.828125 L 11.308594 7.878906 Z M 11.351562 7.878906 "/>
<path style=" stroke:none;fill-rule:nonzero;fill:rgb(81.568629%,0%,43.921569%);fill-opacity:1;" d="M 11.25 7.953125 C 11.246094 7.953125 11.242188 7.945312 11.242188 7.941406 C 11.242188 7.933594 11.246094 7.929688 11.25 7.929688 C 11.253906 7.929688 11.257812 7.933594 11.257812 7.941406 C 11.257812 7.945312 11.253906 7.953125 11.25 7.953125 "/>
<path style=" stroke:none;fill-rule:nonzero;fill:rgb(81.568629%,0%,43.921569%);fill-opacity:1;" d="M 11.4375 7.953125 C 11.433594 7.953125 11.429688 7.945312 11.429688 7.941406 C 11.429688 7.933594 11.433594 7.929688 11.4375 7.929688 C 11.445312 7.929688 11.449219 7.933594 11.449219 7.941406 C 11.449219 7.945312 11.445312 7.953125 11.4375 7.953125 Z M 11.4375 7.953125 "/>
<path style=" stroke:none;fill-rule:nonzero;fill:rgb(42.745098%,12.54902%,46.666667%);fill-opacity:1;" d="M 15.972656 2.136719 C 15.96875 2.132812 15.964844 2.128906 15.960938 2.125 C 15.679688 1.863281 15.226562 1.703125 14.703125 1.703125 C 14.695312 1.703125 14.6875 1.703125 14.675781 1.703125 C 14.246094 1.703125 13.820312 1.792969 13.449219 2.109375 L 13.449219 0.425781 C 13.449219 0.386719 13.433594 0.351562 13.40625 0.324219 C 13.378906 0.300781 13.339844 0.285156 13.300781 0.285156 L 12.8125 0.285156 C 12.773438 0.285156 12.734375 0.300781 12.707031 0.324219 C 12.679688 0.351562 12.660156 0.386719 12.660156 0.425781 L 12.660156 1.832031 L 12.664062 1.832031 L 12.664062 4.816406 L 12.660156 4.816406 L 12.660156 6.214844 C 12.660156 6.25 12.679688 6.285156 12.707031 6.3125 C 12.734375 6.339844 12.773438 6.355469 12.8125 6.355469 L 13.300781 6.355469 C 13.339844 6.355469 13.378906 6.339844 13.40625 6.3125 C 13.433594 6.285156 13.449219 6.25 13.449219 6.214844 L 13.449219 5.925781 C 13.777344 6.289062 14.246094 6.414062 14.675781 6.414062 L 14.707031 6.414062 C 15.226562 6.414062 15.679688 6.25 15.960938 5.992188 C 16.488281 5.492188 16.609375 4.726562 16.613281 4.015625 C 16.609375 3.308594 16.488281 2.632812 15.972656 2.136719 M 15.824219 4.015625 L 15.824219 4.039062 C 15.824219 4.480469 15.777344 4.914062 15.605469 5.226562 C 15.441406 5.527344 15.175781 5.726562 14.65625 5.734375 C 14.652344 5.734375 14.644531 5.734375 14.636719 5.734375 L 14.628906 5.734375 C 14.105469 5.726562 13.835938 5.527344 13.667969 5.226562 C 13.496094 4.914062 13.449219 4.476562 13.449219 4.03125 L 13.449219 4.003906 C 13.449219 3.558594 13.496094 3.203125 13.667969 2.890625 C 13.835938 2.589844 14.105469 2.390625 14.628906 2.382812 L 14.648438 2.382812 C 15.167969 2.390625 15.4375 2.589844 15.609375 2.890625 C 15.777344 3.203125 15.824219 3.558594 15.824219 4.003906 Z M 15.824219 4.015625 "/>
<path style=" stroke:none;fill-rule:nonzero;fill:rgb(42.745098%,12.54902%,46.666667%);fill-opacity:1;" d="M 20.480469 5.976562 C 20.996094 5.480469 21.117188 4.804688 21.117188 4.097656 C 21.117188 3.386719 20.996094 2.621094 20.46875 2.121094 C 20.1875 1.863281 19.734375 1.699219 19.210938 1.699219 L 19.183594 1.699219 C 18.753906 1.699219 18.285156 1.824219 17.957031 2.1875 L 17.957031 1.898438 C 17.957031 1.863281 17.941406 1.828125 17.914062 1.800781 C 17.886719 1.773438 17.847656 1.757812 17.808594 1.757812 L 17.320312 1.757812 C 17.28125 1.757812 17.242188 1.773438 17.214844 1.800781 C 17.183594 1.828125 17.167969 1.863281 17.167969 1.898438 L 17.167969 7.6875 C 17.167969 7.726562 17.183594 7.761719 17.214844 7.789062 C 17.242188 7.8125 17.28125 7.828125 17.320312 7.828125 L 17.808594 7.828125 C 17.847656 7.828125 17.886719 7.8125 17.914062 7.789062 C 17.941406 7.761719 17.957031 7.726562 17.957031 7.6875 L 17.957031 6.003906 C 18.328125 6.320312 18.75 6.410156 19.183594 6.410156 C 19.191406 6.410156 19.203125 6.410156 19.210938 6.410156 C 19.734375 6.410156 20.1875 6.25 20.46875 5.988281 C 20.472656 5.984375 20.476562 5.980469 20.480469 5.976562 M 20.332031 4.109375 C 20.332031 4.554688 20.285156 4.910156 20.113281 5.222656 C 19.945312 5.523438 19.675781 5.722656 19.15625 5.730469 L 19.132812 5.730469 C 18.613281 5.722656 18.34375 5.523438 18.175781 5.222656 C 18.003906 4.910156 17.957031 4.554688 17.957031 4.109375 L 17.957031 4.085938 C 17.957031 3.636719 18.003906 3.199219 18.175781 2.886719 C 18.34375 2.585938 18.613281 2.386719 19.132812 2.378906 L 19.144531 2.378906 C 19.152344 2.382812 19.160156 2.382812 19.164062 2.378906 C 19.679688 2.386719 19.949219 2.589844 20.113281 2.886719 C 20.285156 3.199219 20.332031 3.632812 20.332031 4.078125 Z M 20.332031 4.109375 "/>
<path style=" stroke:none;fill-rule:nonzero;fill:rgb(42.745098%,12.54902%,46.666667%);fill-opacity:1;" d="M 27.5 6.78125 C 27.457031 6.898438 27.378906 7.085938 27.328125 7.199219 C 27.328125 7.199219 27.234375 7.402344 27.101562 7.535156 C 26.980469 7.65625 26.84375 7.738281 26.6875 7.785156 C 26.535156 7.832031 26.433594 7.839844 26.433594 7.839844 C 26.308594 7.847656 26.125 7.855469 26.03125 7.855469 C 25.933594 7.855469 25.851562 7.753906 25.851562 7.628906 L 25.851562 7.296875 C 25.851562 7.171875 25.902344 7.070312 25.964844 7.070312 C 26.027344 7.070312 26.179688 7.058594 26.300781 7.046875 C 26.300781 7.046875 26.394531 7.039062 26.480469 6.972656 C 26.570312 6.90625 26.613281 6.808594 26.613281 6.808594 C 26.664062 6.699219 26.738281 6.507812 26.78125 6.390625 L 26.871094 6.136719 C 26.914062 6.019531 26.914062 5.828125 26.871094 5.710938 L 25.5 1.96875 C 25.457031 1.851562 25.523438 1.757812 25.648438 1.757812 L 26.128906 1.757812 C 26.25 1.757812 26.386719 1.851562 26.425781 1.96875 L 27.324219 4.617188 C 27.363281 4.734375 27.425781 4.734375 27.464844 4.617188 L 28.339844 1.972656 C 28.378906 1.851562 28.511719 1.757812 28.636719 1.757812 L 29.125 1.757812 C 29.25 1.757812 29.316406 1.851562 29.273438 1.96875 Z M 27.5 6.78125 "/>
<path style=" stroke:none;fill-rule:nonzero;fill:rgb(42.745098%,12.54902%,46.666667%);fill-opacity:1;" d="M 25.257812 3.28125 L 25.257812 3.277344 C 25.257812 2.808594 25.101562 2.410156 24.777344 2.140625 C 24.445312 1.871094 23.976562 1.746094 23.367188 1.746094 L 23.339844 1.746094 C 22.703125 1.742188 22.195312 1.882812 21.8125 2.292969 L 21.808594 2.289062 L 21.785156 2.316406 C 21.757812 2.347656 21.730469 2.382812 21.703125 2.417969 L 21.660156 2.464844 C 21.636719 2.492188 21.625 2.53125 21.632812 2.570312 C 21.636719 2.605469 21.65625 2.644531 21.683594 2.667969 L 21.707031 2.6875 C 21.714844 2.699219 21.722656 2.707031 21.734375 2.714844 L 21.820312 2.785156 L 22.050781 2.984375 C 22.078125 3.011719 22.117188 3.023438 22.15625 3.023438 C 22.191406 3.019531 22.226562 3.003906 22.25 2.976562 L 22.398438 2.800781 C 22.492188 2.703125 22.585938 2.632812 22.699219 2.582031 C 22.859375 2.511719 23.066406 2.476562 23.363281 2.476562 L 23.367188 2.476562 L 23.378906 2.472656 C 23.800781 2.476562 24.066406 2.5625 24.214844 2.695312 C 24.367188 2.824219 24.441406 3.023438 24.445312 3.328125 C 24.445312 3.328125 24.445312 3.335938 24.445312 3.34375 L 24.445312 3.628906 L 23.1875 3.628906 C 22.679688 3.632812 22.253906 3.746094 21.945312 3.984375 C 21.644531 4.21875 21.472656 4.578125 21.472656 5 L 21.472656 5.015625 C 21.472656 5.363281 21.605469 5.707031 21.84375 5.945312 C 22.164062 6.261719 22.59375 6.375 23.242188 6.375 L 23.578125 6.375 C 24.171875 6.375 24.597656 6.230469 24.875 5.933594 C 25.148438 5.640625 25.257812 5.210938 25.257812 4.679688 Z M 22.285156 5.003906 L 22.285156 4.992188 C 22.289062 4.757812 22.359375 4.609375 22.496094 4.503906 C 22.636719 4.394531 22.878906 4.324219 23.234375 4.324219 L 24.445312 4.324219 L 24.445312 4.703125 C 24.445312 5.070312 24.363281 5.273438 24.253906 5.367188 C 23.992188 5.609375 23.667969 5.644531 23.273438 5.648438 L 23.261719 5.648438 C 22.882812 5.648438 22.632812 5.582031 22.492188 5.480469 C 22.359375 5.382812 22.289062 5.242188 22.285156 5.003906 "/>
<path style=" stroke:none;fill-rule:nonzero;fill:rgb(42.745098%,12.54902%,46.666667%);fill-opacity:1;" d="M 7.609375 1.765625 C 7.476562 1.765625 7.34375 1.867188 7.308594 1.992188 L 6.453125 5.007812 C 6.417969 5.132812 6.355469 5.136719 6.3125 5.011719 L 5.320312 1.988281 C 5.277344 1.867188 5.140625 1.765625 5.007812 1.765625 L 4.832031 1.765625 C 4.703125 1.765625 4.5625 1.867188 4.523438 1.988281 L 3.535156 5.011719 C 3.496094 5.136719 3.433594 5.132812 3.398438 5.007812 L 2.535156 1.992188 C 2.496094 1.867188 2.363281 1.765625 2.234375 1.765625 L 1.867188 1.765625 C 1.738281 1.765625 1.664062 1.867188 1.703125 1.992188 L 3.023438 6.152344 C 3.0625 6.277344 3.203125 6.378906 3.332031 6.378906 L 3.582031 6.378906 C 3.695312 6.378906 3.820312 6.289062 3.859375 6.179688 L 4.84375 3.234375 C 4.886719 3.109375 4.953125 3.109375 4.996094 3.234375 L 5.980469 6.152344 C 6.023438 6.277344 6.164062 6.378906 6.292969 6.378906 L 6.535156 6.378906 C 6.65625 6.378906 6.785156 6.285156 6.820312 6.167969 L 8.136719 1.992188 C 8.175781 1.867188 8.101562 1.765625 7.972656 1.765625 Z M 7.609375 1.765625 "/>
<path style=" stroke:none;fill-rule:nonzero;fill:rgb(42.745098%,12.54902%,46.666667%);fill-opacity:1;" d="M 9.117188 3.660156 C 9.132812 3.371094 9.15625 3.246094 9.242188 3.027344 C 9.402344 2.648438 9.773438 2.410156 10.207031 2.410156 C 10.640625 2.410156 11.011719 2.648438 11.171875 3.027344 C 11.257812 3.246094 11.28125 3.371094 11.296875 3.660156 Z M 12.101562 3.925781 C 12.101562 2.558594 11.375 1.707031 10.207031 1.707031 C 9.019531 1.707031 8.3125 2.582031 8.3125 4.050781 C 8.3125 5.566406 9.027344 6.398438 10.324219 6.398438 C 11.128906 6.398438 11.5625 6.128906 12 5.691406 L 12.058594 5.632812 L 11.5 5.144531 L 11.449219 5.195312 C 11.09375 5.550781 10.804688 5.675781 10.34375 5.675781 C 9.574219 5.675781 9.136719 5.1875 9.113281 4.300781 L 12.101562 4.300781 Z M 12.101562 3.925781 "/>
<path style=" stroke:none;fill-rule:nonzero;fill:rgb(81.568629%,0%,43.921569%);fill-opacity:1;" d="M 0.71875 2.71875 C 0.976562 2.71875 1.1875 2.507812 1.1875 2.25 C 1.1875 1.988281 0.976562 1.777344 0.71875 1.777344 C 0.460938 1.777344 0.25 1.988281 0.25 2.25 C 0.25 2.507812 0.460938 2.71875 0.71875 2.71875 "/>
<path style=" stroke:none;fill-rule:nonzero;fill:rgb(81.568629%,0%,43.921569%);fill-opacity:1;" d="M 29.25 6.375 C 29.507812 6.375 29.71875 6.164062 29.71875 5.902344 C 29.71875 5.640625 29.507812 5.429688 29.25 5.429688 C 28.988281 5.429688 28.78125 5.640625 28.78125 5.902344 C 28.78125 6.164062 28.988281 6.375 29.25 6.375 "/>
<path style=" stroke:none;fill-rule:nonzero;fill:rgb(81.568629%,0%,43.921569%);fill-opacity:1;" d="M 31.910156 2.273438 L 31.390625 2.273438 L 31.390625 3.054688 L 31.910156 3.054688 C 32.164062 3.054688 32.324219 2.898438 32.324219 2.664062 C 32.324219 2.433594 32.164062 2.273438 31.910156 2.273438 M 31.9375 3.554688 L 31.390625 3.554688 L 31.390625 4.625 L 30.835938 4.625 L 30.835938 1.777344 L 31.9375 1.777344 C 32.527344 1.777344 32.878906 2.179688 32.878906 2.664062 C 32.878906 3.148438 32.527344 3.554688 31.9375 3.554688 "/>
<path style=" stroke:none;fill-rule:nonzero;fill:rgb(81.568629%,0%,43.921569%);fill-opacity:1;" d="M 33.199219 4.625 L 33.199219 1.777344 L 33.757812 1.777344 L 33.757812 4.128906 L 35.046875 4.128906 L 35.046875 4.625 Z M 33.199219 4.625 "/>
<path style=" stroke:none;fill-rule:nonzero;fill:rgb(81.568629%,0%,43.921569%);fill-opacity:1;" d="M 36.238281 4.648438 C 35.65625 4.648438 35.191406 4.253906 35.191406 3.648438 L 35.191406 1.777344 L 35.746094 1.777344 L 35.746094 3.628906 C 35.746094 3.957031 35.9375 4.152344 36.238281 4.152344 C 36.539062 4.152344 36.734375 3.957031 36.734375 3.628906 L 36.734375 1.777344 L 37.285156 1.777344 L 37.285156 3.648438 C 37.285156 4.253906 36.824219 4.648438 36.238281 4.648438 "/>
<path style=" stroke:none;fill-rule:nonzero;fill:rgb(81.568629%,0%,43.921569%);fill-opacity:1;" d="M 38.695312 4.652344 C 38.265625 4.652344 37.9375 4.5625 37.65625 4.277344 L 38.015625 3.917969 C 38.195312 4.097656 38.441406 4.160156 38.703125 4.160156 C 39.03125 4.160156 39.207031 4.035156 39.207031 3.808594 C 39.207031 3.707031 39.179688 3.625 39.117188 3.566406 C 39.0625 3.515625 39 3.488281 38.867188 3.46875 L 38.523438 3.417969 C 38.28125 3.382812 38.101562 3.308594 37.972656 3.183594 C 37.835938 3.046875 37.769531 2.863281 37.769531 2.625 C 37.769531 2.117188 38.144531 1.761719 38.761719 1.761719 C 39.152344 1.761719 39.433594 1.859375 39.679688 2.09375 L 39.328125 2.441406 C 39.148438 2.269531 38.929688 2.246094 38.742188 2.246094 C 38.449219 2.246094 38.304688 2.410156 38.304688 2.605469 C 38.304688 2.675781 38.328125 2.753906 38.386719 2.808594 C 38.445312 2.859375 38.535156 2.90625 38.652344 2.921875 L 38.988281 2.96875 C 39.246094 3.003906 39.410156 3.078125 39.53125 3.1875 C 39.683594 3.332031 39.75 3.539062 39.75 3.789062 C 39.75 4.34375 39.289062 4.652344 38.695312 4.652344 "/>
</g>
</svg>
